<?xml version="1.0" encoding="utf-8"?>
<!-- Generator: Adobe Illustrator 17.0.0, SVG Export Plug-In . SVG Version: 6.00 Build 0)  -->
<!DOCTYPE svg PUBLIC "-//W3C//DTD SVG 1.1//EN" "http://www.w3.org/Graphics/SVG/1.1/DTD/svg11.dtd">
<svg version="1.1" id="Capa_1" xmlns="http://www.w3.org/2000/svg" xmlns:xlink="http://www.w3.org/1999/xlink" x="0px" y="0px"
	 width="57.327px" height="53.928px" viewBox="0 0 57.327 53.928" enable-background="new 0 0 57.327 53.928" xml:space="preserve">
<g>
	<g id="XMLID_1_">
		<g>
			<path fill="#564394" d="M48.116,50.002c1.545-1.743,3.089-3.486,4.634-5.23c0.132-0.154,0.221-0.265,0.441-0.11
				c0.905,0.64,1.434,1.611,1.434,2.692c0.022,0.221-0.022,0.463-0.11,0.684c-0.574,1.39-1.523,2.494-2.802,3.222
				c-1.17,0.684-2.78,0.221-3.641-0.839C47.896,50.223,48.006,50.135,48.116,50.002z"/>
			<path fill="#C5E6EE" d="M39.224,41.86c-0.044-0.574,0.265-1.081,0.243-1.633c-0.022-1.015-0.154-2.03-0.243-3.045
				c1.324-0.066,2.648,0.022,3.95,0.331c-0.816,1.192-1.655,2.361-2.714,3.354C40.084,41.242,39.731,41.639,39.224,41.86z"/>
			<path fill="#C5E6EE" d="M39.113,11.607c1.125,0.706,2.03,1.655,2.825,2.692c1.037,1.346,2.008,2.736,2.648,4.325
				c0.066,0.199,0.132,0.441,0.132,0.662c-0.177,2.67-0.022,5.362-0.088,8.054c0,0.353-0.066,0.684-0.11,1.037
				c-1.699,0-3.376,0.088-5.053,0.243c-0.088-0.419-0.618-0.839-0.022-1.28c0.022-0.022,0-0.088-0.022-0.132
				c-0.132-0.265-0.088-0.552-0.088-0.839c0-2.185-0.022-4.369,0.022-6.532c0.022-2.229-0.154-4.435,0.11-6.642
				c0.044-0.353-0.022-0.706-0.177-1.015C39.202,11.982,39.047,11.827,39.113,11.607z"/>
			<path fill="#C5E6EE" d="M38.495,42.345c0.044-0.132,0.132-0.132,0.243-0.11C38.672,42.323,38.606,42.345,38.495,42.345z"/>
			<path fill="#C5E6EE" d="M38.495,42.345c0,0.11-0.044,0.177-0.132,0.243C38.363,42.478,38.363,42.389,38.495,42.345z"/>
			<path fill="#8BCEDC" d="M35.958,17.675c-1.28-3.244-2.626-6.465-3.795-9.731c1.523,0.287,2.869,0.971,4.215,1.721
				c-0.022,0.243,0.022,0.419,0.265,0.574c0.265,0.177,0.397,0.463,0.53,0.75c0.044,0.11,0.11,0.287-0.022,0.309
				c-0.618,0.154-0.397,0.64-0.397,0.993c-0.022,1.456,0,2.913,0,4.369c0,0.375-0.066,0.75,0.088,1.103
				c0.066,0.154,0.044,0.353-0.11,0.441c-0.221,0.11-0.287-0.066-0.375-0.221C36.267,17.829,36.2,17.653,35.958,17.675z"/>
			<path fill="#9FD6E4" d="M36.2,19.374c0.044-0.044,0.088-0.11,0.154-0.154C36.333,19.308,36.289,19.352,36.2,19.374z"/>
			<path fill="#9FD6E4" d="M36.642,10.239c-0.243-0.154-0.287-0.331-0.265-0.574c0.927,0.53,1.854,1.059,2.604,1.809
				c0.044,0.044,0.088,0.088,0.11,0.132h0.022c-0.066,0.221,0.088,0.375,0.177,0.574c0.154,0.309,0.221,0.662,0.177,1.015
				c-0.265,2.207-0.088,4.413-0.11,6.642c-0.044,2.163-0.022,4.347-0.022,6.532c0,0.287-0.044,0.574,0.088,0.839
				c0.022,0.044,0.044,0.11,0.022,0.132c-0.596,0.441-0.066,0.861,0.022,1.28c-1.192,0.221-2.383,0.463-3.575,0.684
				c0.022-0.353,0.154-0.64,0.463-0.816c0.265-0.154,0.309-0.309,0-0.485c-0.221-0.11-0.419-0.265-0.287-0.574
				c0.309-0.794,0.11-1.523-0.309-2.207c0.199-0.154,0.574,0,0.618-0.397c0.331-0.132,0.375-0.397,0.375-0.728
				c-0.022-1.478-0.044-2.957,0.022-4.435c0.022-0.463-0.066-0.508-0.419-0.441c0.154-0.596-0.309-1.015-0.397-1.545
				c0.243-0.022,0.309,0.154,0.397,0.309c0.088,0.154,0.154,0.331,0.375,0.221c0.154-0.088,0.177-0.287,0.11-0.441
				c-0.154-0.353-0.088-0.728-0.088-1.103c0-1.456-0.022-2.913,0-4.369c0-0.353-0.221-0.839,0.397-0.993
				c0.132-0.022,0.066-0.199,0.022-0.309C37.039,10.702,36.907,10.415,36.642,10.239z"/>
			<path fill="#9FD6E4" d="M36.289,38.638c-0.199-0.243-0.419-0.485-0.64-0.728c1.125-0.508,2.339-0.684,3.575-0.728
				c0.088,1.015,0.221,2.03,0.243,3.045c0.022,0.552-0.287,1.059-0.243,1.633c-0.154,0.11-0.243,0.353-0.485,0.375
				c-0.11-0.022-0.199-0.022-0.243,0.11c-0.132,0.044-0.132,0.132-0.132,0.243c-0.64,0.441-1.236,0.949-1.986,1.236
				c-0.596-1.324-0.309-2.736-0.375-4.126c0-0.243-0.044-0.53,0.243-0.706C36.399,38.903,36.399,38.771,36.289,38.638z"/>
			<path fill="#9FD6E4" d="M35.384,23.854c0.199-0.243,0.485,0.066,0.728-0.088c0.088-0.044,0.154,0.11,0.132,0.221
				c-0.066,0.309-0.309,0.177-0.485,0.221C35.583,24.14,35.472,24.008,35.384,23.854z"/>
			<path fill="#8BCEDC" d="M33.773,22.353c-0.199-0.177-0.154-0.287,0-0.463c0.816-0.816,1.611-1.677,2.427-2.516
				c0.088-0.022,0.132-0.066,0.154-0.154c0.353-0.066,0.441-0.022,0.419,0.441c-0.066,1.478-0.044,2.957-0.022,4.435
				c0,0.331-0.044,0.596-0.375,0.728c-0.243-0.177-0.463-0.375-0.618-0.618c0.177-0.044,0.419,0.088,0.485-0.221
				c0.022-0.11-0.044-0.265-0.132-0.221c-0.243,0.154-0.53-0.154-0.728,0.088C34.854,23.346,34.325,22.839,33.773,22.353z"/>
			<path fill="#8BCEDC" d="M32.493,29.392c-0.993-0.419-1.677-1.125-1.964-2.185c-0.088-0.331,0-0.441,0.287-0.53
				c1.655-0.485,3.31-0.971,4.943-1.456c0.419,0.684,0.618,1.412,0.309,2.207c-0.132,0.309,0.066,0.463,0.287,0.574
				c0.309,0.177,0.265,0.331,0,0.485c-0.309,0.177-0.441,0.463-0.463,0.816C34.766,29.701,33.641,29.922,32.493,29.392z"/>
			<path fill="#74C8D8" d="M29.161,23.17c-0.927,0-1.765-0.839-1.765-1.787c-0.022-0.927,0.794-1.765,1.743-1.787
				c1.015-0.022,1.809,0.772,1.832,1.787C30.971,22.375,30.132,23.192,29.161,23.17z"/>
			<path fill="#8BCEDC" d="M26.447,46.406c-0.221-0.022-0.463,0.044-0.596-0.199c2.891-2.471,5.583-5.164,8.518-7.569
				c0.375-0.309,0.794-0.574,1.28-0.728c0.221,0.243,0.441,0.485,0.64,0.728c0.11,0.132,0.11,0.265-0.044,0.353
				c-0.287,0.177-0.243,0.463-0.243,0.706c0.066,1.39-0.221,2.802,0.375,4.126c-2.096,1.258-4.369,2.008-6.796,2.339
				C28.543,46.317,27.506,46.428,26.447,46.406z"/>
			<path fill="#8BCEDC" d="M25.564,46.383c0-0.066,0.022-0.088,0.088-0.066C25.631,46.339,25.587,46.361,25.564,46.383z"/>
			<path fill="#74C8D8" d="M22.652,13.284c-0.794-1.699-1.611-3.398-2.405-5.097c1.39-0.331,2.78-0.75,4.237-0.905
				c2.008-0.199,3.994-0.177,5.98,0.199c0.199,0.044,0.397,0.066,0.596,0.088c-0.927,1.92-1.832,3.84-2.736,5.759
				c-0.132,0.265-0.287,0.309-0.53,0.309c-1.523,0-3.045,0-4.568,0C22.939,13.637,22.784,13.549,22.652,13.284z"/>
			<path fill="#74C8D8" d="M21.593,23.192c-0.971,0-1.787-0.816-1.765-1.832c0-0.971,0.772-1.743,1.743-1.765
				c0.971,0,1.765,0.772,1.787,1.743C23.358,22.353,22.563,23.17,21.593,23.192z"/>
			<path fill="#74C8D8" d="M19.452,44.949c-3.795-1.501-6.796-4.016-9.069-7.392c-1.567-2.361-2.56-4.943-2.979-7.745
				c-0.574-3.795-0.11-7.458,1.434-10.989c0.772-1.743,1.765-3.332,3.001-4.788c1.633-1.92,3.575-3.464,5.826-4.656
				c0.221-0.11,0.419-0.243,0.684-0.243c-0.441,1.501-1.103,2.935-1.677,4.413c-0.618,1.655-1.258,3.31-1.942,4.965
				c-0.177,0.419-0.088,0.662,0.199,0.971c0.728,0.728,1.412,1.501,2.118,2.207c0.331,0.331,0.353,0.508,0.022,0.839
				c-0.839,0.794-1.589,1.655-2.383,2.494c1.324,0.419,2.714,0.839,4.126,1.258c1.854,0.552,3.729,1.081,5.583,1.677
				c0.772,0.265,1.501,0.331,2.229-0.022c0.508-0.243,0.706-0.044,0.839,0.441c0.331,1.17,0.706,2.317,0.662,3.553
				c-0.022,0.728-0.265,1.346-0.905,1.765c-1.92,1.28-3.84,2.538-5.737,3.84c-0.618,0.397-1.214,0.839-1.787,1.324
				c-0.728,0.618-0.905,1.368-0.552,1.942c0.353,0.574,1.39,0.861,2.163,0.574c0.861-0.309,1.611-0.883,2.361-1.412
				c1.434-1.059,2.825-2.207,4.171-3.354c0.552-0.441,1.103-0.883,1.787-1.081c0.353-0.11,0.772-0.287,1.059,0.11
				c0.265,0.375-0.044,0.706-0.265,0.993c-0.485,0.706-1.103,1.28-1.721,1.832c-1.721,1.545-3.464,3.089-5.208,4.634
				c-0.177,0.154-0.331,0.353-0.508,0.508c-0.662,0.596-0.883,1.324-0.596,2.163C21.328,45.766,20.401,45.324,19.452,44.949z"/>
			<path fill="#FFFFFF" d="M4.778,31.489C2.549,21.25,7.536,10.879,16.936,6.223c8.429-4.148,18.756-2.582,25.553,3.906
				c4.104,3.906,6.421,8.672,6.995,14.299c0.132,1.214,0.066,2.427,0.088,3.641c0,0.441-0.132,0.662-0.64,0.574
				c-1.456-0.199-2.935-0.243-4.413-0.265c0.044-0.353,0.11-0.684,0.11-1.037c0.066-2.692-0.088-5.384,0.088-8.054
				c0-0.221-0.066-0.463-0.132-0.662c-0.64-1.589-1.611-2.979-2.648-4.325c-0.794-1.037-1.699-1.986-2.825-2.692h-0.022
				c-0.022-0.044-0.066-0.088-0.11-0.132c-0.75-0.75-1.677-1.28-2.604-1.809c-1.346-0.75-2.692-1.434-4.215-1.721
				c-0.199-0.419-0.375-0.839-0.596-1.324c-0.199,0.375-0.353,0.662-0.508,0.949c-0.199-0.022-0.397-0.044-0.596-0.088
				c-1.986-0.375-3.972-0.397-5.98-0.199c-1.456,0.154-2.847,0.574-4.237,0.905c-0.265-0.508-0.53-1.015-0.816-1.567
				c-0.441,0.839-0.618,1.743-1.081,2.516c-0.265,0-0.463,0.132-0.684,0.243c-2.251,1.192-4.193,2.736-5.826,4.656
				c-1.236,1.456-2.229,3.045-3.001,4.788c-1.545,3.531-2.008,7.194-1.434,10.989c0.419,2.802,1.412,5.384,2.979,7.745
				c2.273,3.376,5.274,5.892,9.069,7.392c0.949,0.375,1.876,0.816,2.935,0.816c0.861,0.993,1.986,1.192,3.178,0.618
				c0.022-0.022,0.066-0.044,0.088-0.066c0.066-0.044,0.132-0.066,0.199-0.11c0.132,0.243,0.375,0.177,0.596,0.199
				c1.059,0.022,2.096-0.088,3.133-0.243c2.427-0.331,4.7-1.081,6.796-2.339c0.75-0.287,1.346-0.794,1.986-1.236
				c0.088-0.066,0.132-0.132,0.132-0.243c0.11,0,0.177-0.022,0.243-0.11c0.243-0.022,0.331-0.265,0.485-0.375
				c0.508-0.221,0.861-0.618,1.236-0.993c1.059-0.993,1.898-2.163,2.714-3.354c1.015,0.044,1.964,0.375,2.935,0.618
				c0.441,0.11,0.154,0.331,0.066,0.485c-1.412,2.295-3.178,4.281-5.318,5.914c-4.303,3.332-9.224,4.921-14.63,4.788
				C15.855,49.031,7.007,41.639,4.778,31.489z"/>
			<path fill="#564394" d="M27.396,21.382c0,0.949,0.839,1.787,1.765,1.787c0.971,0.022,1.809-0.794,1.809-1.787
				c-0.022-1.015-0.816-1.809-1.832-1.787C28.19,19.617,27.374,20.455,27.396,21.382z M19.827,21.36
				c-0.022,1.015,0.794,1.832,1.765,1.832c0.971-0.022,1.765-0.839,1.765-1.854c-0.022-0.971-0.816-1.743-1.787-1.743
				C20.6,19.617,19.827,20.389,19.827,21.36z M10.008,45.214c-4.126-3.641-6.752-8.253-7.723-13.659
				c-1.721-9.775,1.214-18.006,8.805-24.45c3.619-3.089,7.922-4.788,12.622-5.45c0.088,0,0.154,0,0.243-0.022
				c0.993-0.11,2.008-0.132,3.001-0.154c11.828-0.022,22.066,8.231,24.538,19.86c1.39,6.488,0.353,12.666-3.089,18.381
				c-0.243,0.375-0.221,0.574,0.132,0.861c1.037,0.883,2.052,1.832,3.089,2.714c0.265,0.243,0.265,0.353,0.044,0.618
				c-1.501,1.677-2.979,3.332-4.435,5.031c-0.331,0.375-0.508,0.309-0.816,0.022c-0.993-0.905-2.03-1.787-3.045-2.692
				c-0.265-0.265-0.419-0.265-0.706-0.044c-2.979,2.427-6.355,4.104-10.106,4.899C24.064,52.915,16.495,50.995,10.008,45.214z
				 M16.936,6.223C7.536,10.879,2.549,21.25,4.778,31.489c2.229,10.151,11.077,17.543,21.449,17.83
				c5.406,0.132,10.327-1.456,14.63-4.788c2.14-1.633,3.906-3.619,5.318-5.914c0.088-0.154,0.375-0.375-0.066-0.485
				c-0.971-0.243-1.92-0.574-2.935-0.618c-1.302-0.309-2.626-0.397-3.95-0.331c-1.236,0.044-2.449,0.221-3.575,0.728
				c-0.485,0.154-0.905,0.419-1.28,0.728c-2.935,2.405-5.627,5.097-8.518,7.569c-0.066,0.044-0.132,0.066-0.199,0.11
				c-0.066-0.022-0.088,0-0.088,0.066c-1.192,0.574-2.317,0.375-3.178-0.618c-0.287-0.839-0.066-1.567,0.596-2.163
				c0.177-0.154,0.331-0.353,0.508-0.508c1.743-1.545,3.486-3.089,5.208-4.634c0.618-0.552,1.236-1.125,1.721-1.832
				c0.221-0.287,0.53-0.618,0.265-0.993c-0.287-0.397-0.706-0.221-1.059-0.11c-0.684,0.199-1.236,0.64-1.787,1.081
				c-1.346,1.147-2.736,2.295-4.171,3.354c-0.75,0.53-1.501,1.103-2.361,1.412c-0.772,0.287-1.809,0-2.163-0.574
				c-0.353-0.574-0.177-1.324,0.552-1.942c0.574-0.485,1.17-0.927,1.787-1.324c1.898-1.302,3.817-2.56,5.737-3.84
				c0.64-0.419,0.883-1.037,0.905-1.765c0.044-1.236-0.331-2.383-0.662-3.553c-0.132-0.485-0.331-0.684-0.839-0.441
				c-0.728,0.353-1.456,0.287-2.229,0.022c-1.854-0.596-3.729-1.125-5.583-1.677c-1.412-0.419-2.802-0.839-4.126-1.258
				c0.794-0.839,1.545-1.699,2.383-2.494c0.331-0.331,0.309-0.508-0.022-0.839c-0.706-0.706-1.39-1.478-2.118-2.207
				c-0.287-0.309-0.375-0.552-0.199-0.971c0.684-1.655,1.324-3.31,1.942-4.965c0.574-1.478,1.236-2.913,1.677-4.413
				c0.463-0.772,0.64-1.677,1.081-2.516c0.287,0.552,0.552,1.059,0.816,1.567c0.794,1.699,1.611,3.398,2.405,5.097
				c0.132,0.265,0.287,0.353,0.574,0.353c1.523,0,3.045,0,4.568,0c0.243,0,0.397-0.044,0.53-0.309
				c0.905-1.92,1.809-3.84,2.736-5.759c0.154-0.287,0.309-0.574,0.508-0.949c0.221,0.485,0.397,0.905,0.596,1.324
				c1.17,3.266,2.516,6.488,3.795,9.731c0.088,0.53,0.552,0.949,0.397,1.545c-0.066,0.044-0.11,0.11-0.154,0.154
				c-0.816,0.839-1.611,1.699-2.427,2.516c-0.154,0.177-0.199,0.287,0,0.463c0.552,0.485,1.081,0.993,1.611,1.501
				c0.088,0.154,0.199,0.287,0.375,0.353c0.154,0.243,0.375,0.441,0.618,0.618c-0.044,0.397-0.419,0.243-0.618,0.397
				c-1.633,0.485-3.288,0.971-4.943,1.456c-0.287,0.088-0.375,0.199-0.287,0.53c0.287,1.059,0.971,1.765,1.964,2.185
				c1.147,0.53,2.273,0.309,3.398-0.088c1.192-0.221,2.383-0.463,3.575-0.684c1.677-0.154,3.354-0.243,5.053-0.243
				c1.478,0.022,2.957,0.066,4.413,0.265c0.508,0.088,0.64-0.132,0.64-0.574c-0.022-1.214,0.044-2.427-0.088-3.641
				c-0.574-5.627-2.891-10.393-6.995-14.299C35.693,3.641,25.366,2.074,16.936,6.223z"/>
		</g>
		<g>
		</g>
	</g>
</g>
</svg>
